<svg xmlns="http://www.w3.org/2000/svg" width="100" height="100" viewBox="0 0 99.999997 99.999997"><path d="M8.725 27.763l38.97 37.8m-.585-38.385l-37.8 38.97M2.319 38.505L54.1 54.821m1.198-9.911L1.121 48.416m26.582 25.388l1.013-54.282M17.21 71.48l22-49.634m-.361 49.791L17.57 21.689M52.283 34.12L4.136 59.206" fill="none" stroke="#e88b00" stroke-width=".262"/><path d="M43.584 46.663a15.375 15.375 0 0 1-15.363 15.375 15.375 15.375 0 0 1-15.386-15.352 15.375 15.375 0 0 1 15.34-15.398 15.375 15.375 0 0 1 15.41 15.33" fill="#f2e818" fill-rule="evenodd" stroke="#000" stroke-width=".087"/><path d="M79.119 50.356c10.864-.025 19.693 9.232 19.725 20.713 0 11.481-8.553 9.27-41.41 9.066-32.858-.204-41.923 2.021-41.94-9.43-.016-11.45 8.774-20.748 19.638-20.774a24.33 24.33 0 0 1 3.021.2c1.756-9.58 9.716-16.797 19.285-16.82 9.683-.022 17.749 7.329 19.542 17.122.79-.026 1.46-.074 2.139-.077z" fill="#90c5db" fill-opacity=".965" fill-rule="evenodd" stroke="#000" stroke-width=".087"/></svg>
