<svg xmlns="http://www.w3.org/2000/svg" viewBox="0 0 100 100"><path fill="none" stroke="#000" stroke-width=".8" d="M47 9.3h6v61.3h-6z" stroke-linecap="round"/><circle cx="50" cy="80.7" r="11.3" fill-rule="evenodd" stroke="#000" stroke-width=".8" stroke-linecap="round"/><path fill="none" stroke="#000" stroke-width="1.6" d="M31.7 80.7c0-6 3-11.7 8-15L41 64c.3-.7.2-2.5.2-2.5V11c0-5.6 4-10 8.6-10 4.7 0 8.6 4.4 8.6 10v50.5s0 1.8.2 2.5c.4.7 1 1.2 1.6 1.6 5 3.4 8 9 8 15C68.3 91 60 99 50 99c-10 0-18.3-8.2-18.3-18.3z"/><path fill="none" stroke="#000" stroke-width="1.2" d="M54.3 10h4.2M56.2 13.2h2.4M54.3 16.5h4.2M56.2 19.8h2.4M54.3 23.2h4.2M56.2 26.5h2.4M54.3 29.8h4.2M56.2 33.2h2.4M54.3 36.5h4.2M56.2 39.8h2.4M54.3 43h4.2M56.2 46.5h2.4M54.3 49.8h4.2M56.2 53h2.4M54.3 56.4h4.2"/><path fill="#c9bee9" fill-opacity=".2" fill-rule="evenodd" stroke="#fff" stroke-width="3.6" d="M43 80.3A7 7 0 0 1 48 74" stroke-linecap="round"/><path id="merc" style="transition:stroke-dashoffset 1s" fill="none" stroke="#000" stroke-width="5.5" stroke-dashoffset="10" d="M50 9.3v60" stroke-dasharray="0 60 60"/></svg>
