<svg xmlns="http://www.w3.org/2000/svg" viewBox="0 0 100 100"><g stroke="#000"><path fill="none" stroke-width=".5" d="M50 99c-10.2 0-18.4-4.2-18.4-9.2L39 6.4h22m0 0l7.4 83.4c0 5-8.2 9-18.4 9"/><path fill-rule="evenodd" stroke-width=".3" d="M61 6.4c0-3-5-5.4-11-5.4S39 3.4 39 6.4L38 19c0-3.8 5.3-7 12-7s12 3.2 12 7z" stroke-linecap="round"/><path fill-rule="evenodd" stroke-width=".4" d="M33.6 67.5c0-4.2 7.3-7.7 16.4-7.7 9 0 16.4 3.5 16.4 7.7l2 22.3c0-5-8.2-9.2-18.4-9.2s-18.4 4-18.4 9.2zM65 50.7C65 46.5 58 43 50 43s-15 3.5-15 7.7l1.6-17c0-4.3 6-7.7 13.4-7.7s13.4 3.4 13.4 7.7z" stroke-linecap="round"/></g></svg>
