<svg xmlns="http://www.w3.org/2000/svg" xmlns:xlink="http://www.w3.org/1999/xlink" viewBox="0 -70 1169.2914 1169.2913" height="1169" width="1169"><defs><style>svg .icon{display:none}svg .icon:target{display:inline}</style><filter id="i" color-interpolation-filters="sRGB"><feGaussianBlur stdDeviation="19.600000000000001 12"/></filter><pattern id="f" patternTransform="translate(-3217 -22)" height="249" width="160" patternUnits="userSpaceOnUse"><g transform="translate(2755 -161)"><path d="M-2646 214c-7 7 20 50 11 52-10 2-2-49-11-52-10-3-34 43-41 35-6-7 42-25 40-35s-53-8-50-18c3-9 43 24 50 17 8-7-20-50-10-52s1 49 11 52 34-43 40-35c7 7-41 25-39 35s53 8 50 18c-3 9-43-24-51-17z" id="a" fill="#c9bee9" fill-rule="evenodd" stroke-width="3"/><use transform="translate(-57 143)" xlink:href="#a"/></g></pattern><pattern id="j" patternTransform="translate(-3001 -30)" height="238" width="178" patternUnits="userSpaceOnUse"><g transform="translate(3062 -2)"><path d="M-2944 60c4 17-54-29-52-12 1 17 61-6 52 9-10 14-17-59-29-46-11 13 47 39 31 43-17 4 30-54 12-52-16 1 6 61-9 52-14-10 59-17 46-28-13-12-39 47-43 30s54 30 52 12c-1-16-61 6-52-8 10-15 17 58 29 45 11-12-47-39-31-43 17-3-30 54-12 52 16-1-6-61 9-52 14 10-59 17-46 29 13 11 39-47 43-31z" id="b" fill="#c9bee9" fill-rule="evenodd" stroke="#000" stroke-width="0"/><use transform="translate(-66 126)" xlink:href="#b"/></g></pattern><path id="e" d="M-1892-1159l437-15-215 419-468 4z" fill-rule="evenodd" stroke-width="0"/><path id="k" d="M-1609 538l134-3-208 188 406-243-172 2 220-121-243 3z" fill="#e7e93b" fill-rule="evenodd" stroke="#000"/><g id="l" fill-rule="evenodd"><path d="M-1793-284l446 432m-7-439l-432 445m-80-316l592 187m13-113l-619 40m304 290l12-621m-132 594l252-567m-5 569l-243-571m397 142l-550 287" fill="none" stroke="#e88b00" stroke-width="3"/><path d="M-1394-68a176 176 0 0 1-176 175 176 176 0 0 1-176-175 176 176 0 0 1 175-176 176 176 0 0 1 177 175" fill="#f2e818" stroke="#000"/></g><path d="M-1526 397l-111 257m242-328l-112 256m200-173l-111 256m241-331l-111 256" id="h" fill="none" stroke="#e88bd4" stroke-width="4" stroke-dasharray="140.00001669, 35.00000417" fill-rule="evenodd"/><path id="n" d="M-1675-196a254 254 0 1 1-301 372c256 37 385-145 301-372z" fill="#d1e07d" fill-rule="evenodd" stroke="#000" stroke-width="3"/><path id="c" d="M-1103 32c124-1 225 105 225 236 0 132-98 106-473 104-376-2-480 23-480-108a231 231 0 0 1 259-235 229 229 0 0 1 221-192c110-1 203 83 223 195h25z" fill-rule="evenodd" stroke="#000"/><use id="d" xlink:href="#c" fill="#90c5db"/><path d="M-2098 654h37v46h-37v-46zm35-26h-34v-28q0-19 5-30 5-12 21-28l17-16q10-10 14-18 5-9 5-18 0-16-12-26t-31-10q-15 0-31 7-16 6-34 18v-34q17-10 35-15 17-5 36-5 34 0 54 17 20 18 20 47 0 13-7 26-6 12-22 28l-16 15-13 14-4 9q-2 4-2 9l-1 15v23z" font-size="371" transform="matrix(.98783 0 0 1.01232 691 -463)" id="g" style="line-height:125%" font-family="sans-serif" letter-spacing="0" word-spacing="0" fill="#9c67f0" fill-opacity="0" stroke="#000"/><g transform="translate(-1820 -945) scale(.95136)" id="m"><use xlink:href="#c" transform="translate(3333 1309) scale(.76044)" fill="#c9eef8"/><use xlink:href="#c" transform="translate(3704 1294) scale(.6706)" fill="#549bbd"/><use xlink:href="#d" transform="translate(3908 1360)"/></g><g transform="translate(-724 197) scale(.95136)" id="o"><use xlink:href="#e" transform="translate(3196 1550)" fill="url(#f)"/><use xlink:href="#d" transform="translate(2755 160)"/><use xlink:href="#g" transform="translate(2755 160)"/></g><g transform="translate(1897 349) scale(.95136)" id="p"><use xlink:href="#h"/><use xlink:href="#d"/><use xlink:href="#g"/></g><g transform="translate(1666 -16) scale(.95136)" id="q"><use xlink:href="#e" transform="translate(650 1750)" filter="url(#i)" fill="url(#j)"/><use xlink:href="#d" transform="translate(243 384)"/><use xlink:href="#g" transform="translate(243 384)"/></g><g transform="translate(-586 -1652) scale(.95136)" id="r"><use xlink:href="#e" transform="translate(3030 3456)" fill="url(#j)"/><use xlink:href="#d" transform="translate(2611 2104)"/><use xlink:href="#g" transform="translate(2611 2104)"/></g><g transform="translate(1897 349) scale(.95136)" id="s"><use xlink:href="#k"/><use xlink:href="#h"/><use xlink:href="#d"/><use xlink:href="#g"/></g><g transform="translate(1666 197) scale(.95136)" id="t"><use transform="translate(696 1550)" xlink:href="#e" fill="url(#f)"/><use transform="translate(243 160)" xlink:href="#d"/></g><g transform="translate(-3093 -1037) scale(.95136)" id="u"><use xlink:href="#l" transform="translate(5453 1361)"/><use xlink:href="#m" transform="translate(3281 1114)"/></g><g transform="translate(-3123 -1975) scale(.95136)" id="y"><use xlink:href="#l" transform="translate(5162 2501)"/><use xlink:href="#d" transform="translate(5277 2443)"/></g><g transform="translate(-4692 1116) scale(.95136)" id="A"><use xlink:href="#d" transform="translate(6926 -806)"/><use xlink:href="#l" transform="translate(6956 -708)"/></g><g transform="translate(-4681 14) scale(.95136)" id="w"><use xlink:href="#d" transform="translate(6292 600) scale(.41542)"/><use xlink:href="#l" transform="translate(7560 546) scale(1.27345)"/></g><g transform="translate(-4800 -958) scale(.95136)" id="C"><use xlink:href="#e" transform="translate(7475 2745)" filter="url(#i)" fill="url(#j)"/><use xlink:href="#d" transform="translate(7040 1374)"/></g><g transform="translate(1897 349) scale(.95136)" id="D"><use xlink:href="#h"/><use xlink:href="#d"/></g><g transform="translate(1503 -790) scale(.95136)" id="E"><use xlink:href="#e" transform="translate(850 2556)" fill="url(#j)"/><use xlink:href="#d" transform="translate(414 1197)"/></g><g transform="translate(1897 349) scale(.95136)" id="F"><use xlink:href="#k"/><use xlink:href="#h"/><use xlink:href="#d"/></g><g transform="translate(2673 -814) scale(.95136)" id="B"><use xlink:href="#d" transform="translate(-815 1223)"/><use xlink:href="#n" transform="translate(-813 1203)"/></g><g transform="translate(2589 -2521) scale(.95136)" id="x"><use xlink:href="#d" transform="translate(-1323 3283) scale(.54966)"/><use xlink:href="#n" transform="translate(270 2974) scale(1.4564)"/></g><g transform="translate(3545 -3474) scale(.95136)" id="v"><use xlink:href="#n" transform="translate(-1398 3764)"/><use xlink:href="#m" transform="translate(-3696 3676)"/></g><g transform="translate(1897 349) scale(.95136)" id="z"><use xlink:href="#n"/><use xlink:href="#d"/></g></defs><use id="chanceflurries" xlink:href="#o" class="icon"/><use id="nt_chanceflurries" xlink:href="#o" class="icon"/><use id="chancerain" xlink:href="#p" class="icon"/><use id="nt_chancerain" xlink:href="#p" class="icon"/><use id="chancesleet" xlink:href="#q" class="icon"/><use id="nt_chancesleet" xlink:href="#q" class="icon"/><use id="chancesnow" xlink:href="#r" class="icon"/><use id="nt_chancesnow" xlink:href="#r" class="icon"/><use id="chancetstorms" xlink:href="#s" class="icon"/><use id="nt_chancetstorms" xlink:href="#s" class="icon"/><use id="clear" transform="translate(1967 509) scale(.86466)" xlink:href="#l" class="icon"/><use id="nt_clear" transform="translate(2266 403) scale(.95136)" xlink:href="#n" class="icon"/><use id="cloudy" xlink:href="#m" class="icon"/><use id="nt_cloudy" xlink:href="#m" class="icon"/><use id="flurries" xlink:href="#t" class="icon"/><use id="nt_flurries" xlink:href="#t" class="icon"/><use id="fog" xlink:href="#m" filter="url(#i)" class="icon"/><use id="nt_fog" xlink:href="#m" filter="url(#i)" class="icon"/><use id="hazy" transform="translate(2667 540) scale(1.3106)" xlink:href="#l" filter="url(#i)" class="icon"/><use id="nt_hazy" transform="translate(2826 309) scale(1.3741)" xlink:href="#n" filter="url(#i)" class="icon"/><use id="mostlycloudy" xlink:href="#u" class="icon"/><use id="nt_mostlycloudy" xlink:href="#v" class="icon"/><use id="mostlysunny" xlink:href="#w" class="icon"/><use id="nt_mostlysunny" xlink:href="#x" class="icon"/><use id="partlycloudy" xlink:href="#y" class="icon"/><use id="nt_partlycloudy" xlink:href="#z" class="icon"/><use id="partlysunny" xlink:href="#A" class="icon"/><use id="nt_partlysunny" xlink:href="#B" class="icon"/><use id="sleet" xlink:href="#C" class="icon"/><use id="nt_sleet" xlink:href="#C" class="icon"/><use id="rain" xlink:href="#D" class="icon"/><use id="nt_rain" xlink:href="#D" class="icon"/><use id="snow" xlink:href="#E" class="icon"/><use id="nt_snow" xlink:href="#E" class="icon"/><use id="sunny" transform="translate(2873 549) scale(1.4419)" xlink:href="#l" class="icon"/><use id="nt_sunny" transform="translate(3292 373) scale(1.5406)" xlink:href="#n" class="icon"/><use id="tstorms" xlink:href="#F" class="icon"/><use id="nt_tstorms" xlink:href="#F" class="icon"/><g id="unknown" transform="translate(1897 349) scale(.95136)" class="icon"><use xlink:href="#d"/><use xlink:href="#g"/></g></svg>
